# xmcd
#
# Track frame offsets: 
#        150
#        11169
#        21390
#        31730
#        41034
#        51934
#        61008
#        71302
#        81550
#        94742
#        106046
#        119372
#        128843
#        141140
#        150886
#        159288
#        168429
#        180047
#        189893
#        199440
#        212686
#        225063
#        235331
#        244598
#        254802
#        265159
#        275340
#
# Disc length: 3831 seconds
#
# Revision: 0
# Processed by: cddbd v1.5.2PL0 Copyright (c) Steve Scherf et al.
# Submitted via: ExactAudioCopy v1.1
#
DISCID=600ef51b
DTITLE=Leroy Van Dyke  - Walk On By (Jasmine)_CD2
DYEAR=2015
DGENRE=Country
TTITLE0=Image Of Me
TTITLE1=Take Good Care Of Her
TTITLE2=Three Hearts In A Tangle
TTITLE3=Handful Of Friends
TTITLE4=Sea Of Heartbreak
TTITLE5=I Miss You Already
TTITLE6=Heartaches By The Number
TTITLE7=Big Shoes
TTITLE8=Funny How Time Slips Away 
TTITLE9=I Got A Conscience
TTITLE10=Love Letters In The Sand
TTITLE11=Sugartime
TTITLE12=Don't Forbid Me
TTITLE13=Honeycomb
TTITLE14=Party Doll
TTITLE15=Don't Let The Stars Get In Your Eyes
TTITLE16=I Almost Lost My Mind
TTITLE17=I Need You Now
TTITLE18=Slippin' Around
TTITLE19=The Auctioneer
TTITLE20=Lonely Street
TTITLE21=Dim Dark Corner
TTITLE22=The Life You Offered Me
TTITLE23=How Long Must You Keep Me A Secret
TTITLE24=I Sat Back And Let It Happen
TTITLE25=Black Cloud
TTITLE26=Five Steps Away
EXTD=
EXTT0=
EXTT1=
EXTT2=
EXTT3=
EXTT4=
EXTT5=
EXTT6=
EXTT7=
EXTT8=
EXTT9=
EXTT10=
EXTT11=
EXTT12=
EXTT13=
EXTT14=
EXTT15=
EXTT16=
EXTT17=
EXTT18=
EXTT19=
EXTT20=
EXTT21=
EXTT22=
EXTT23=
EXTT24=
EXTT25=
EXTT26=
PLAYORDER=
